<?xml version="1.0" encoding="utf-8"?>
<!-- Generator: Adobe Illustrator 14.0.0, SVG Export Plug-In . SVG Version: 6.00 Build 43363)  -->
<!DOCTYPE svg PUBLIC "-//W3C//DTD SVG 1.1//EN" "http://www.w3.org/Graphics/SVG/1.1/DTD/svg11.dtd">
<svg version="1.1" id="Слой_1" xmlns="http://www.w3.org/2000/svg" xmlns:xlink="http://www.w3.org/1999/xlink" x="0px" y="0px"
	 width="768px" height="198px" viewBox="0 0 768 198" enable-background="new 0 0 768 198" xml:space="preserve">
<path fill="#e8aa00" d="M35.92,177.645c0,7.632-6.188,13.819-13.82,13.819c-7.632,0-13.82-6.188-13.82-13.819v-157.3
	c0-7.632,6.188-13.82,13.82-13.82h30.905c5.304,0,9.91,2.989,12.227,7.374l45.018,71.249l45.584-72.145
	c2.617-4.156,7.088-6.434,11.661-6.438v-0.04H198.4c7.633,0,13.82,6.188,13.82,13.82v157.3c0,7.632-6.188,13.819-13.82,13.819
	h-0.024h-0.068h-0.11h-0.15h-0.19h-0.228h-0.264h-0.299h-0.333h-0.365h-0.396h-0.426h-0.454h-0.48h-0.506h-0.529h-0.552h-0.573
	h-0.593h-0.611h-0.627h-0.643h-0.657h-0.669h-0.552l-0.025,0.086l-6.673-0.001l-0.018-0.085h-2.942h-3.941l-5.123-0.001h-1.761
	c-0.118-0.001-0.236-0.004-0.354-0.007l0,0c-0.117-0.005-0.234-0.011-0.352-0.018l0,0c-7.234-0.439-12.966-6.449-12.966-13.794
	c-0.017-1.611-0.188-4.835-0.185-6.552v-62.017c0-7.633,6.188-13.82,13.82-13.82h16.968l0.032-0.085V34.165h-9.518l-53.039,83.941
	c-1.073,1.769-2.563,3.321-4.432,4.498c-6.44,4.056-14.948,2.122-19.003-4.318L45.438,34.165H35.92V177.645z"/>
<path fill="#ffffff" d="M326.875,171.093v-62.017c0-7.633,6.188-13.82,13.819-13.82h16.968l0.032-0.085V34.375
	c-0.066,0-0.132,0.001-0.199,0l-6.869-0.103L276.939,182.94c-2.06,5.049-7.014,8.609-12.799,8.609h-29.742
	c-7.633,0-13.82-6.195-13.82-13.837V20.361c0-7.642,6.188-13.836,13.82-13.836c7.632,0,13.82,6.195,13.82,13.836v143.515h7.39
	l74.16-149.624c2.162-4.386,6.34-7.112,10.861-7.613l-0.021-0.076v-0.04h30.905c7.632,0,13.82,6.188,13.82,13.82v157.3
	c0,7.632-6.188,13.819-13.82,13.819h-10.302l-0.025,0.086l-6.672-0.001l-0.018-0.085l-13.767-0.001
	c-7.563-0.077-13.595-6.251-13.671-13.818C327.042,176.033,326.871,172.81,326.875,171.093z"/>
<path fill="#ffffff" d="M440.994,191.2c-7.633,0-13.82-6.209-13.82-13.867c0-7.659,6.188-13.867,13.82-13.867h49.393V97.45h-49.393
	c-7.633,0-13.82-6.188-13.82-13.82c0-7.632,6.188-13.82,13.82-13.82h80.828V33.909h-80.828c-7.633,0-13.82-6.208-13.82-13.867
	c0-7.659,6.188-13.867,13.82-13.867h94.648c7.632,0,13.82,6.208,13.82,13.867v63.587v93.704c0,7.658-6.188,13.867-13.82,13.867
	H440.994L440.994,191.2z M408.199,97.45c7.631,0,13.82-6.188,13.82-13.82s-6.189-13.82-13.82-13.82
	c-7.632,0-13.82,6.188-13.82,13.82S400.567,97.45,408.199,97.45L408.199,97.45z M408.199,191.2c7.631,0,13.82-6.189,13.82-13.82
	c0-7.632-6.189-13.82-13.82-13.82c-7.632,0-13.82,6.188-13.82,13.82C394.379,185.011,400.567,191.2,408.199,191.2L408.199,191.2z
	 M408.199,33.815c7.631,0,13.82-6.188,13.82-13.82s-6.189-13.82-13.82-13.82c-7.632,0-13.82,6.189-13.82,13.82
	S400.567,33.815,408.199,33.815z"/>
<path fill="#ffffff" d="M704.149,171.093v-62.017c0-7.633,6.188-13.82,13.82-13.82h16.968l0.032-0.085V34.165h-9.518l-53.038,83.941
	c-1.074,1.769-2.563,3.321-4.433,4.498c-6.439,4.056-14.948,2.122-19.002-4.318l-53.152-84.121h-9.518v143.479
	c0,7.632-6.188,13.819-13.819,13.819c-7.633,0-13.82-6.188-13.82-13.819v-157.3c0-7.632,6.188-13.82,13.82-13.82h30.904
	c5.305,0,9.91,2.989,12.227,7.374l45.019,71.249l45.584-72.145c2.616-4.156,7.088-6.434,11.661-6.438v-0.04h30.904
	c7.633,0,13.82,6.188,13.82,13.82v157.3c0,7.632-6.188,13.819-13.82,13.819h-10.302l-0.024,0.086l-6.673-0.001l-0.019-0.085
	l-13.767-0.001c-7.563-0.077-13.595-6.251-13.671-13.818C704.317,176.033,704.146,172.81,704.149,171.093z"/>
</svg>
